<svg width="32" height="32" viewBox="0 0 32 32" fill="none" xmlns="http://www.w3.org/2000/svg">
<path d="M0.865601 16.2031C0.865601 7.67027 7.7828 0.753052 16.3156 0.753052V0.753052C24.8484 0.753052 31.7656 7.67025 31.7656 16.2031V31.653H0.865601V16.2031Z" fill="#F3AFA8"/>
<path d="M8.88174 25.188L10.526 25.188L10.526 23.4865L8.88174 23.4865L8.88174 25.188ZM22.5708 11.2305C22.5708 11.1155 22.4806 11.0222 22.3694 11.0222L20.557 11.0222C20.4458 11.0222 20.3556 11.1155 20.3556 11.2305C20.3556 11.3456 20.4458 11.4389 20.557 11.4389L22.168 11.4389L22.168 13.1061C22.168 13.2212 22.2582 13.3145 22.3694 13.3145C22.4806 13.3145 22.5708 13.2212 22.5708 13.1061L22.5708 11.2305ZM9.84625 24.4846L22.5118 11.3779L22.227 11.0832L9.56146 24.1899L9.84625 24.4846Z" fill="#2D2D2D"/>
</svg>
